<svg xmlns="http://www.w3.org/2000/svg" width="30" height="30" viewBox="0 0 30 30">
    <g fill="none" fill-rule="evenodd">
        <g>
            <g>
                <g>
                    <g>
                        <path d="M0 0H30V30H0z" transform="translate(-572 -805) translate(102 780) translate(140 25) translate(330)"/>
                        <g transform="translate(-572 -805) translate(102 780) translate(140 25) translate(330)">
                            <path fill="#405566" fill-rule="nonzero" d="M29.203.264C24.2-.634 19.09.781 15 4.196 10.911.78 5.8-.634.797.264.335.344-.005.801 0 1.336v23.158c-.002.306.11.599.31.804.196.201.458.298.721.267 4.777-.741 9.612.775 13.388 4.2h.065l.104.074h.046c.11.085.235.14.366.161.125-.003.25-.032.366-.086h.047l.112-.085h.056c3.767-3.449 8.603-4.989 13.388-4.264.263.031.525-.066.722-.267.198-.205.311-.498.309-.804V1.324c0-.53-.338-.98-.797-1.06zM2 23.503V2.138c4.27-.6 8.571.77 12 3.824V27c-3.161-2.4-6.854-3.646-10.615-3.584-.462.043-.914.054-1.385.087zm26-.047c-4.222-.39-8.437.855-12 3.544V5.953c3.429-3.047 7.73-4.414 12-3.815v21.318z"/>
                            <g transform="translate(4.614 4.296)">
                                <rect width="5" height="13" x=".886" y="1.204" stroke="#405467" rx="2.5"/>
                                <path fill="#405566" d="M6.386 7.704v4.308c0 1.486-1.343 2.692-3 2.692s-3-1.206-3-2.692V7.704"/>
                            </g>
                            <rect width="8" height="1" x="3.992" y="21.087" fill="#405566" rx=".5" transform="rotate(10 7.992 21.587)"/>
                            <circle cx="21.5" cy="9.5" r="3.5" fill="#405566"/>
                            <circle cx="19.5" cy="15.5" r="1.5" fill="#405566"/>
                            <circle cx="24" cy="19" r="2" fill="#405566"/>
                        </g>
                    </g>
                </g>
            </g>
        </g>
    </g>
</svg>
