<svg xmlns="http://www.w3.org/2000/svg" xmlns:xlink="http://www.w3.org/1999/xlink" width="30" height="30" viewBox="0 0 30 30">
    <defs>
        <path id="a" d="M19.726 14.957c-.46.414-.952 1.149-1.136 2.44-.299 1.59-.696 2.784-1.69 4.076-.994.994-2.31 2.027-3.9 2.027-1.591 0-3.258-1.033-4.252-2.027C7.654 20.379 7 19.09 7 17.5l.058-2.886c-1.888-.199-3.579-.994-4.771-2.188C.895 11.034 0 9.146 0 7.058v-5.07C0 1.491.199.994.597.596.895.199 1.69.071 2.287.071h.994c.298 0 .596.228.596.525V3.28c0 .299-.298.597-.596.597H2.087v3.081c0 1.592.597 2.983 1.69 3.977.995.994 2.387 1.69 3.977 1.69h1.69c1.59 0 2.982-.597 3.976-1.69.994-.994 1.69-2.385 1.69-3.977V3.877h-1.193c-.298 0-.917-.298-.917-.597V.596c0-.297 1.512-.525 2.512-.525C16.507.3 17 .903 17 1.5v5c0 2.087-.697 4.633-2.09 6.025C13.52 13.917 12.188 14.5 10 14.5H9v3c0 1.292.245 2.281 1.04 3.078.994.795 1.768.922 2.96.922 1.193 0 2.11-.425 2.906-1.22.595-.995.794-1.393.994-2.585 0 0 .618-3.157 2.134-4.245a3 3 0 1 1 .692 1.507zM22 12a1 1 0 1 0 0 2 1 1 0 0 0 0-2z"/>
    </defs>
    <g fill="none" fill-rule="evenodd" transform="translate(4 4)">
        <mask id="b" fill="#fff">
            <use xlink:href="#a"/>
        </mask>
        <use fill="#405566" xlink:href="#a"/>
        <g fill="#405566" mask="url(#b)">
            <path d="M-4-4h30v30H-4z"/>
        </g>
    </g>
</svg>
