<svg xmlns="http://www.w3.org/2000/svg" width="24" height="24" viewBox="0 0 24 24">
    <g fill="none" fill-rule="evenodd">
        <path stroke="#536C81" stroke-width="2" d="M14.008 15.58A7.953 7.953 0 0 0 11 15c-3.866 0-7 2.686-7 6"/>
        <circle cx="11" cy="8" r="4" stroke="#536C81" stroke-width="2"/>
        <path fill="#536C81" d="M21.8 17c.6 0 1.2.6 1.2 1.3v3.5c0 .6-.6 1.2-1.3 1.2h-5.5c-.6 0-1.2-.6-1.2-1.3v-3.5c0-.6.6-1.2 1.2-1.2v-1.5c0-1.4 1.4-2.5 2.8-2.5s2.8 1.1 2.8 2.5V17zm-1.3 0v-1.5c0-.8-.7-1.3-1.5-1.3s-1.5.5-1.5 1.3V17h3z"/>
    </g>
</svg>
