<svg xmlns="http://www.w3.org/2000/svg" xmlns:xlink="http://www.w3.org/1999/xlink" width="30" height="30" viewBox="0 0 30 30">
    <defs>
        <path id="a" d="M18 7v17a3 3 0 0 1-3 3H5a3 3 0 0 1-3-3V7H1a1 1 0 0 1-1-1V1a1 1 0 0 1 1-1h18a1 1 0 0 1 1 1v5a1 1 0 0 1-1 1h-1zm-2 0H4v17a1 1 0 0 0 1 1h10a1 1 0 0 0 1-1V7zm2-2V2H2v3h16zM7.236 11.039v1.557h.915c.602 0 .973-.024 1.113-.074a.618.618 0 0 0 .346-.263.722.722 0 0 0 .132-.454c0-.214-.057-.379-.173-.503-.099-.123-.264-.206-.461-.247a15.405 15.405 0 0 0-.907-.016h-.965zm0 2.538v2.564H6V10h2.605c.65 0 1.137.058 1.434.165.297.115.528.305.709.593.181.28.272.602.272.965 0 .461-.14.84-.412 1.146-.272.296-.676.486-1.212.568.272.157.486.322.668.511.165.182.412.52.7.998l.445.717 1.163-1.896h1.442l-1.92 2.976 2.102 3.165h-1.492l-1.36-2.127-1.369 2.127H8.292l2.093-3.207-.577-.898-.676-.997c-.321-.479-.536-.775-.65-.899a.96.96 0 0 0-.38-.264c-.124-.04-.338-.066-.618-.066h-.248z"/>
    </defs>
    <g fill="none" fill-rule="evenodd">
        <path d="M0 0h30v30H0z"/>
        <g transform="translate(5 2)">
            <mask id="b" fill="#fff">
                <use xlink:href="#a"/>
            </mask>
            <use fill="#405566" xlink:href="#a"/>
            <g fill="#405566" mask="url(#b)">
                <path d="M-5-2h30v30H-5z"/>
            </g>
        </g>
    </g>
</svg>
